<mxfile host="app.diagrams.net" modified="2024-02-12T07:52:49.296Z" agent="Mozilla/5.0 (Windows NT 10.0; Win64; x64) AppleWebKit/537.36 (KHTML, like Gecko) Chrome/121.0.0.0 Safari/537.36" etag="Uj_b3edcp3dnyXpX7o-5" version="23.1.2" type="device">
  <diagram name="Página-1" id="taj6eajACPBFfB_bp7X4">
    <mxGraphModel dx="2569" dy="857" grid="1" gridSize="10" guides="1" tooltips="1" connect="1" arrows="1" fold="1" page="1" pageScale="1" pageWidth="1169" pageHeight="827" math="1" shadow="0">
      <root>
        <mxCell id="0" />
        <mxCell id="1" parent="0" />
        <mxCell id="V8lNUS2OXUibBGvljUvQ-27" style="edgeStyle=orthogonalEdgeStyle;rounded=0;orthogonalLoop=1;jettySize=auto;html=1;entryX=0;entryY=0.5;entryDx=0;entryDy=0;" parent="1" source="V8lNUS2OXUibBGvljUvQ-1" edge="1">
          <mxGeometry relative="1" as="geometry">
            <mxPoint x="100" y="225" as="targetPoint" />
          </mxGeometry>
        </mxCell>
        <mxCell id="V8lNUS2OXUibBGvljUvQ-1" value="" style="shape=sumEllipse;perimeter=ellipsePerimeter;whiteSpace=wrap;html=1;backgroundOutline=1;" parent="1" vertex="1">
          <mxGeometry x="-40" y="185" width="80" height="80" as="geometry" />
        </mxCell>
        <mxCell id="JfqN7dgW8ZJqLfpfv8Oj-4" style="edgeStyle=orthogonalEdgeStyle;rounded=0;orthogonalLoop=1;jettySize=auto;html=1;entryX=0.5;entryY=0;entryDx=0;entryDy=0;" edge="1" parent="1" source="V8lNUS2OXUibBGvljUvQ-5" target="V8lNUS2OXUibBGvljUvQ-1">
          <mxGeometry relative="1" as="geometry">
            <Array as="points">
              <mxPoint x="490" y="225" />
              <mxPoint x="490" y="140" />
              <mxPoint y="140" />
            </Array>
          </mxGeometry>
        </mxCell>
        <mxCell id="V8lNUS2OXUibBGvljUvQ-5" value="&lt;font style=&quot;font-size: 20px;&quot;&gt;modèle&lt;br&gt;MAS&lt;/font&gt;" style="rounded=0;whiteSpace=wrap;html=1;" parent="1" vertex="1">
          <mxGeometry x="250" y="185" width="160" height="80" as="geometry" />
        </mxCell>
        <mxCell id="V8lNUS2OXUibBGvljUvQ-29" value="" style="endArrow=classic;html=1;rounded=0;entryX=0;entryY=0.5;entryDx=0;entryDy=0;" parent="1" target="V8lNUS2OXUibBGvljUvQ-1" edge="1">
          <mxGeometry width="50" height="50" relative="1" as="geometry">
            <mxPoint x="-110" y="225" as="sourcePoint" />
            <mxPoint x="90" y="230" as="targetPoint" />
          </mxGeometry>
        </mxCell>
        <mxCell id="V8lNUS2OXUibBGvljUvQ-30" value="" style="endArrow=none;html=1;rounded=0;" parent="1" edge="1">
          <mxGeometry width="50" height="50" relative="1" as="geometry">
            <mxPoint x="-60" y="210" as="sourcePoint" />
            <mxPoint x="-60" y="190" as="targetPoint" />
          </mxGeometry>
        </mxCell>
        <mxCell id="V8lNUS2OXUibBGvljUvQ-31" value="" style="endArrow=none;html=1;rounded=0;" parent="1" edge="1">
          <mxGeometry width="50" height="50" relative="1" as="geometry">
            <mxPoint x="-50" y="200" as="sourcePoint" />
            <mxPoint x="-70" y="200" as="targetPoint" />
          </mxGeometry>
        </mxCell>
        <mxCell id="V8lNUS2OXUibBGvljUvQ-32" value="" style="endArrow=none;html=1;rounded=0;" parent="1" edge="1">
          <mxGeometry width="50" height="50" relative="1" as="geometry">
            <mxPoint x="20" y="170" as="sourcePoint" />
            <mxPoint x="40" y="170" as="targetPoint" />
          </mxGeometry>
        </mxCell>
        <mxCell id="V8lNUS2OXUibBGvljUvQ-33" value="&lt;font style=&quot;font-size: 20px;&quot;&gt;$$i_{d_{ref}}$$&lt;/font&gt;" style="text;html=1;strokeColor=none;fillColor=none;align=center;verticalAlign=middle;whiteSpace=wrap;rounded=0;" parent="1" vertex="1">
          <mxGeometry x="-170" y="210" width="60" height="30" as="geometry" />
        </mxCell>
        <mxCell id="V8lNUS2OXUibBGvljUvQ-35" value="&lt;font style=&quot;font-size: 20px;&quot;&gt;$$i_{d}$$&lt;/font&gt;" style="text;html=1;strokeColor=none;fillColor=none;align=center;verticalAlign=middle;whiteSpace=wrap;rounded=0;" parent="1" vertex="1">
          <mxGeometry x="410" y="195" width="60" height="30" as="geometry" />
        </mxCell>
        <mxCell id="JfqN7dgW8ZJqLfpfv8Oj-2" style="edgeStyle=orthogonalEdgeStyle;rounded=0;orthogonalLoop=1;jettySize=auto;html=1;entryX=0;entryY=0.5;entryDx=0;entryDy=0;" edge="1" parent="1" source="JfqN7dgW8ZJqLfpfv8Oj-1" target="V8lNUS2OXUibBGvljUvQ-5">
          <mxGeometry relative="1" as="geometry" />
        </mxCell>
        <mxCell id="JfqN7dgW8ZJqLfpfv8Oj-1" value="&lt;font style=&quot;font-size: 24px;&quot;&gt;PI&lt;/font&gt;" style="rounded=0;whiteSpace=wrap;html=1;" vertex="1" parent="1">
          <mxGeometry x="100" y="195" width="70" height="60" as="geometry" />
        </mxCell>
        <mxCell id="JfqN7dgW8ZJqLfpfv8Oj-5" value="&lt;font style=&quot;font-size: 20px;&quot;&gt;$$v_{d}$$&lt;/font&gt;" style="text;html=1;strokeColor=none;fillColor=none;align=center;verticalAlign=middle;whiteSpace=wrap;rounded=0;" vertex="1" parent="1">
          <mxGeometry x="190" y="195" width="60" height="30" as="geometry" />
        </mxCell>
      </root>
    </mxGraphModel>
  </diagram>
</mxfile>
